<?xml version="1.0" standalone="no"?>
<!DOCTYPE svg PUBLIC "-//W3C//DTD SVG 20010904//EN"
 "http://www.w3.org/TR/2001/REC-SVG-20010904/DTD/svg10.dtd">
<svg version="1.0" xmlns="http://www.w3.org/2000/svg"
 width="512.000000pt" height="512.000000pt" viewBox="0 0 512.000000 512.000000"
 preserveAspectRatio="xMidYMid meet">

<g transform="translate(0.000000,512.000000) scale(0.100000,-0.100000)"
fill="#fff" stroke="none">
<path d="M3436 4995 c-4 -27 -21 -64 -41 -92 -19 -27 -46 -67 -61 -90 -82
-133 -67 -324 36 -453 65 -82 85 -170 56 -251 -7 -19 -34 -66 -60 -103 -48
-67 -86 -162 -86 -217 l0 -29 79 0 79 0 6 45 c4 27 21 64 41 92 62 86 84 127
99 188 35 133 10 244 -84 370 -48 64 -64 114 -57 180 6 61 22 95 77 168 43 56
66 114 76 190 l7 47 -81 0 -80 0 -6 -45z"/>
<path d="M3916 4995 c-4 -27 -21 -64 -41 -92 -19 -27 -46 -67 -61 -90 -82
-133 -67 -324 36 -453 65 -82 85 -170 56 -251 -7 -19 -34 -66 -60 -103 -48
-67 -86 -162 -86 -217 l0 -29 79 0 79 0 6 45 c4 27 21 64 41 92 62 86 84 127
99 188 35 133 10 244 -84 370 -48 64 -64 114 -57 180 6 61 22 95 77 168 43 56
66 114 76 190 l7 47 -81 0 -80 0 -6 -45z"/>
<path d="M2585 3335 l-25 -24 0 -536 0 -535 80 0 80 0 0 480 0 480 880 0 880
0 0 -1176 c0 -895 -3 -1187 -12 -1218 -16 -55 -99 -138 -154 -154 -30 -9 -172
-12 -513 -12 l-471 0 55 110 c30 60 55 121 55 135 0 14 -11 37 -25 50 l-24 25
-418 0 -418 0 -1 108 c-1 85 -7 123 -28 187 -59 183 -182 329 -360 426 l-50
27 57 55 c217 208 563 207 777 -4 66 -64 102 -122 139 -218 23 -61 25 -81 29
-283 l4 -218 80 0 80 0 -5 222 c-5 252 -12 290 -80 428 -33 67 -59 103 -127
171 -94 95 -175 146 -298 187 -68 23 -93 26 -212 26 -117 -1 -145 -4 -212 -26
-116 -38 -204 -92 -289 -177 -41 -42 -82 -86 -90 -98 -13 -20 -20 -22 -76 -16
-40 4 -63 10 -63 18 0 7 -16 44 -35 82 -43 86 -103 144 -193 186 l-67 32 -175
0 -175 0 -67 -32 c-90 -42 -150 -100 -193 -186 -19 -38 -35 -75 -35 -82 0 -8
-26 -15 -76 -19 -166 -15 -313 -85 -437 -206 l-78 -77 -25 48 c-90 178 -139
487 -100 624 40 137 150 248 325 327 138 63 233 80 479 85 145 4 257 1 320 -7
356 -45 622 -257 622 -496 0 -48 -7 -44 113 -59 l47 -6 0 58 c0 80 -24 175
-63 247 -61 115 -220 259 -352 317 l-48 21 55 22 c159 65 325 201 382 313 50
100 33 130 -97 172 -151 47 -272 65 -406 58 -210 -11 -369 -69 -473 -172 -31
-31 -62 -70 -69 -86 -9 -22 -16 -28 -28 -23 -70 31 -124 43 -188 44 l-73 0 0
-80 0 -80 68 0 c72 0 121 -20 142 -59 10 -20 8 -21 -42 -21 -70 0 -227 -25
-308 -48 -164 -48 -287 -119 -400 -232 -144 -143 -186 -254 -177 -465 9 -203
64 -407 157 -582 l48 -92 -20 -63 c-15 -45 -21 -93 -22 -170 l-1 -108 -58 0
c-48 0 -62 -4 -82 -25 -42 -41 -34 -70 55 -188 l80 -107 -55 0 c-71 0 -105
-28 -105 -88 0 -233 163 -447 400 -528 53 -18 129 -19 2160 -19 2031 0 2107 1
2160 19 228 77 377 263 397 493 5 67 4 73 -20 97 l-26 26 -254 0 -253 0 35 71
c34 68 36 77 39 199 l4 127 90 5 c76 5 100 11 162 42 88 43 146 102 189 194
l32 67 0 656 0 655 -37 76 c-70 140 -187 216 -349 226 l-89 5 0 174 c0 171 0
174 -25 198 l-24 25 -991 0 -991 0 -24 -25z m-1075 -307 c-112 -50 -219 -105
-292 -151 -49 -31 -88 -52 -88 -47 0 5 15 28 33 52 55 72 161 125 295 148 66
11 81 10 52 -2z m320 -93 c-25 -30 -148 -105 -221 -134 -71 -28 -251 -71 -301
-71 -17 0 -9 9 37 37 122 74 282 138 416 168 83 18 84 18 69 0z m2964 -147
c55 -16 138 -99 154 -154 17 -59 17 -1209 0 -1268 -16 -55 -99 -138 -154 -154
-23 -7 -67 -12 -98 -12 l-56 0 0 800 0 800 56 0 c31 0 75 -5 98 -12z m-3280
-880 c45 -13 146 -105 146 -132 0 -14 -34 -16 -300 -16 -266 0 -300 2 -300 16
0 24 101 119 140 131 48 15 263 16 314 1z m-714 -365 c-87 -98 -159 -274 -160
-390 l0 -33 80 0 80 0 0 33 c0 98 58 227 137 304 62 61 193 129 268 140 l50 6
-53 -59 c-89 -99 -161 -274 -162 -391 l0 -33 80 0 80 0 0 33 c0 98 58 227 137
304 60 59 190 128 262 139 l44 7 -52 -68 c-84 -110 -132 -225 -147 -354 l-7
-61 80 0 79 0 12 72 c16 92 68 200 129 268 58 65 156 130 194 130 36 0 143
-39 201 -73 57 -33 152 -128 185 -185 59 -101 95 -252 79 -336 l-7 -36 -1028
0 -1029 0 -6 23 c-19 71 3 197 54 303 81 169 273 302 453 313 14 1 5 -14 -33
-56z m2390 -823 l-40 -80 -1395 0 -1394 0 -61 80 -61 80 1496 0 1495 0 -40
-80z m1760 -254 c0 -7 -16 -45 -35 -83 -43 -86 -103 -144 -193 -186 l-67 -32
-2095 0 -2095 0 -67 32 c-90 42 -150 100 -193 186 -19 38 -35 76 -35 83 0 12
377 14 2390 14 2013 0 2390 -2 2390 -14z"/>
<path d="M4160 2960 l0 -80 80 0 80 0 0 80 0 80 -80 0 -80 0 0 -80z"/>
<path d="M4160 2640 l0 -80 80 0 80 0 0 80 0 80 -80 0 -80 0 0 -80z"/>
<path d="M2320 1760 l0 -80 80 0 80 0 0 80 0 80 -80 0 -80 0 0 -80z"/>
<path d="M2640 1760 l0 -80 80 0 80 0 0 80 0 80 -80 0 -80 0 0 -80z"/>
</g>
</svg>
