<?xml version="1.0" standalone="no"?>
<!DOCTYPE svg PUBLIC "-//W3C//DTD SVG 20010904//EN"
 "http://www.w3.org/TR/2001/REC-SVG-20010904/DTD/svg10.dtd">
<svg version="1.0" xmlns="http://www.w3.org/2000/svg"
 width="512.000000pt" height="512.000000pt" viewBox="0 0 512.000000 512.000000"
 preserveAspectRatio="xMidYMid meet">

<g transform="translate(0.000000,512.000000) scale(0.100000,-0.100000)"
fill="#fff" stroke="none">
<path d="M1725 4653 c-394 -26 -831 -150 -1110 -317 -280 -167 -467 -365 -555
-586 -57 -142 -72 -297 -42 -441 42 -202 143 -367 335 -547 l47 -45 0 -906 c0
-771 2 -915 15 -964 48 -185 187 -324 372 -372 86 -23 3460 -23 3546 0 185 48
324 187 372 372 13 49 15 193 15 964 l0 906 48 45 c191 180 292 345 334 547
42 203 -3 413 -129 603 -220 331 -702 596 -1268 698 -246 45 -372 50 -1174 48
-416 -1 -778 -3 -806 -5z m575 -218 c813 -111 1398 -552 1356 -1021 -17 -186
-97 -328 -283 -503 l-108 -101 -5 -962 c-5 -959 -5 -963 -26 -1009 -28 -60
-93 -125 -153 -153 l-46 -21 -1105 0 -1105 0 -46 21 c-60 28 -125 93 -153 153
-21 46 -21 50 -26 1009 l-5 962 -108 102 c-177 165 -258 303 -280 478 -54 430
410 845 1123 1004 102 22 268 47 400 60 92 8 459 -4 570 -19z m1090 15 c665
-60 1220 -324 1438 -683 62 -102 86 -189 86 -307 1 -208 -76 -356 -281 -549
l-108 -101 -5 -962 c-5 -959 -5 -963 -26 -1009 -28 -60 -93 -125 -153 -153
-45 -20 -59 -21 -514 -24 l-468 -3 25 40 c14 22 36 68 48 103 l23 63 3 926 2
927 48 44 c191 180 292 345 334 547 34 162 14 323 -57 478 -112 243 -334 449
-655 610 l-125 62 135 0 c74 1 187 -4 250 -9z"/>
<path d="M1900 3303 c-78 -30 -90 -142 -19 -178 103 -54 199 75 116 154 -24
22 -72 34 -97 24z"/>
<path d="M1620 3022 c-38 -6 -486 -457 -493 -497 -7 -43 16 -91 54 -110 61
-32 83 -17 326 227 122 123 227 236 233 252 12 32 -1 86 -25 106 -19 15 -66
26 -95 22z"/>
<path d="M2470 3022 c-35 -5 -1196 -1167 -1202 -1202 -6 -41 2 -67 28 -93 26
-26 53 -35 94 -29 35 5 1196 1167 1202 1202 6 41 -2 67 -28 93 -26 26 -53 35
-94 29z"/>
<path d="M2595 2306 c-45 -21 -471 -455 -479 -489 -16 -67 51 -132 123 -119
39 7 487 457 494 497 7 42 -16 91 -52 109 -36 19 -47 19 -86 2z"/>
<path d="M1879 1595 c-33 -18 -53 -65 -44 -103 15 -72 107 -102 159 -53 87 81
-10 213 -115 156z"/>
<path d="M4384 3550 c-45 -18 -61 -53 -67 -153 -18 -279 -128 -542 -319 -767
-30 -36 -60 -75 -67 -87 -8 -16 -11 -242 -11 -817 l0 -796 28 -30 c17 -19 40
-33 63 -36 31 -5 42 -1 70 24 l34 30 3 773 2 772 54 66 c213 262 336 578 340
874 l1 98 -33 30 c-33 29 -60 35 -98 19z"/>
</g>
</svg>
