<?xml version="1.0" standalone="no"?>
<!DOCTYPE svg PUBLIC "-//W3C//DTD SVG 20010904//EN"
 "http://www.w3.org/TR/2001/REC-SVG-20010904/DTD/svg10.dtd">
<svg version="1.0" xmlns="http://www.w3.org/2000/svg"
 width="512.000000pt" height="512.000000pt" viewBox="0 0 512.000000 512.000000"
 preserveAspectRatio="xMidYMid meet">

<g transform="translate(0.000000,512.000000) scale(0.100000,-0.100000)"
fill="#fff" stroke="none">
<path d="M2630 5087 c-65 -38 -114 -105 -129 -177 -6 -28 -11 -140 -11 -248
l0 -197 -200 -300 -200 -300 0 -88 c0 -80 2 -90 25 -112 51 -51 125 -13 125
65 l0 40 935 0 935 0 0 -342 0 -343 -118 0 c-131 -1 -176 -11 -332 -78 -249
-105 -345 -89 -392 67 -5 17 -13 86 -17 153 -16 207 -83 307 -249 364 -165 58
-455 -15 -708 -176 l-51 -33 -20 26 c-26 35 -87 37 -114 3 -18 -22 -19 -47
-19 -398 0 -352 -1 -374 -17 -369 -125 39 -239 19 -332 -59 l-31 -27 -31 27
c-81 67 -177 92 -280 70 l-64 -13 -37 29 c-48 39 -112 66 -173 74 -50 7 -51 8
-380 336 -220 219 -342 333 -367 344 -50 20 -134 19 -184 -4 -72 -33 -124
-118 -124 -202 1 -74 33 -116 273 -358 155 -155 227 -235 218 -239 -32 -11
-102 -87 -126 -136 -13 -28 -28 -77 -31 -108 l-7 -58 -94 0 c-56 0 -107 -5
-126 -14 -43 -18 -95 -78 -102 -120 -9 -46 91 -956 115 -1050 97 -381 378
-671 754 -780 47 -14 116 -28 151 -32 l65 -7 0 -37 c0 -66 30 -131 85 -187 91
-90 -85 -83 1967 -83 l1809 0 24 25 25 24 0 1050 c0 759 -3 1057 -11 1075 -23
51 -103 55 -128 7 -8 -13 -11 -336 -11 -1025 l0 -1006 -330 0 -330 0 0 1805 0
1805 328 -2 327 -3 3 -644 2 -645 22 -23 c29 -31 72 -30 103 2 l25 24 0 693 0
693 -205 307 -205 308 0 213 c0 136 -4 226 -12 248 -20 60 -67 118 -121 149
l-52 30 -895 0 -896 0 -54 -33z m1810 -122 c15 -8 38 -27 49 -41 20 -25 21
-39 21 -216 l0 -189 -47 3 -48 3 -5 80 c-3 44 -9 86 -13 93 -26 40 -105 31
-126 -14 -6 -14 -11 -56 -11 -94 l0 -70 -75 0 -75 0 0 70 c0 38 -5 80 -11 94
-21 45 -100 54 -126 14 -4 -7 -10 -49 -13 -93 l-5 -80 -71 -3 -72 -3 -3 80
c-5 93 -25 124 -79 124 -54 0 -73 -30 -78 -123 l-5 -81 -71 3 -71 3 -5 82 c-6
94 -20 116 -71 116 -23 0 -39 -8 -56 -27 -20 -23 -23 -38 -23 -102 l0 -74 -75
0 -75 0 0 74 c0 90 -4 102 -42 122 -25 13 -35 13 -59 3 -41 -16 -49 -36 -49
-123 l0 -76 -75 0 -75 0 0 74 c0 64 -3 79 -23 102 -28 32 -76 37 -106 9 -16
-14 -21 -33 -23 -99 l-3 -81 -47 -3 -48 -3 0 188 c0 207 2 216 64 254 30 18
62 19 864 19 716 0 837 -2 862 -15z m0 -600 c0 -3 -66 -104 -147 -225 l-146
-220 -920 0 -919 0 19 29 c10 16 77 117 148 225 l130 196 918 0 c504 0 917 -2
917 -5z m280 -250 l130 -195 -261 0 -261 0 19 29 c49 77 238 361 240 361 2 0
61 -88 133 -195z m-1757 -671 c55 -19 111 -77 126 -131 6 -21 11 -63 11 -93 0
-138 40 -269 103 -338 55 -59 107 -84 189 -90 93 -6 173 11 309 69 175 74 298
96 378 68 l31 -11 0 -1379 0 -1379 -686 0 -686 0 8 27 c4 16 10 50 13 77 l6
50 87 17 c231 45 402 134 565 292 96 93 167 192 223 309 73 153 86 223 140
712 28 248 50 473 50 500 0 66 -32 123 -85 153 -37 21 -53 23 -191 23 l-151 0
-5 58 c-10 100 -81 207 -168 252 -89 45 -210 44 -294 -3 l-41 -23 -45 23 c-81
41 -183 48 -262 18 -11 -4 -30 4 -55 24 -68 54 -129 75 -215 74 l-78 -1 0 230
0 229 78 50 c112 73 306 166 392 188 92 24 191 26 253 5z m-2348 -454 c164
-164 297 -301 295 -302 -3 -2 -17 -13 -31 -26 -24 -21 -29 -22 -72 -10 -42 11
-74 40 -317 283 -190 191 -270 277 -270 293 0 30 34 62 68 62 22 0 79 -52 327
-300z m574 -427 c48 -37 64 -68 65 -131 1 -40 -5 -67 -17 -85 -17 -26 -21 -27
-106 -27 l-88 0 -7 58 c-3 31 -18 81 -32 110 -25 51 -25 54 -9 72 37 41 141
42 194 3z m1230 -1 c70 -51 92 -143 51 -209 l-20 -33 -88 0 -89 0 -6 55 c-3
30 -17 80 -31 111 -14 31 -26 58 -26 60 0 2 11 11 25 20 55 36 133 34 184 -4z
m-1622 -69 c44 -21 81 -76 85 -128 l3 -40 -165 0 -165 0 2 39 c3 50 41 108 84
129 44 21 112 21 156 0z m765 -8 c37 -28 68 -86 68 -129 l0 -36 -114 0 -113 0
3 93 c2 50 4 94 4 96 0 2 28 2 63 -1 41 -2 71 -10 89 -23z m485 -4 c41 -30 73
-89 73 -136 l0 -25 -165 0 -165 0 0 36 c0 124 155 199 257 125z m729 13 c41
-20 73 -62 84 -111 14 -61 10 -63 -117 -63 l-115 0 6 31 c3 17 6 60 6 95 l0
64 51 0 c28 0 66 -7 85 -16z m395 -7 c38 -25 79 -97 79 -139 l0 -28 -113 0
-113 0 -11 63 c-7 34 -15 71 -18 83 -14 46 115 62 176 21z m504 -327 c4 -6 1
-67 -6 -135 l-12 -125 -1368 0 c-981 0 -1375 -3 -1392 -11 -24 -11 -47 -47
-47 -73 0 -7 9 -25 21 -40 l20 -26 1375 0 1375 0 -6 -52 c-4 -29 -8 -63 -11
-75 l-4 -23 -1669 0 -1668 0 -7 38 c-3 20 -6 54 -6 75 l0 37 170 0 c161 0 170
1 190 22 27 30 26 73 -5 103 -24 25 -27 25 -199 25 l-175 0 -5 33 c-14 83 -26
219 -21 228 9 13 3442 12 3450 -1z m-82 -832 c-41 -349 -228 -624 -518 -765
-211 -102 -255 -105 -1205 -101 l-755 4 -95 26 c-395 107 -651 400 -705 806
-8 59 -15 115 -15 125 0 16 85 17 1653 17 l1654 0 -14 -112z m-983 -1052 c0
-38 -29 -80 -70 -101 -42 -22 -1103 -22 -1155 -1 -40 17 -64 50 -72 100 l-6
36 652 0 651 0 0 -34z"/>
</g>
</svg>
