<?xml version="1.0" standalone="no"?>
<!DOCTYPE svg PUBLIC "-//W3C//DTD SVG 20010904//EN"
 "http://www.w3.org/TR/2001/REC-SVG-20010904/DTD/svg10.dtd">
<svg version="1.0" xmlns="http://www.w3.org/2000/svg"
 width="512.000000pt" height="512.000000pt" viewBox="0 0 512.000000 512.000000"
 preserveAspectRatio="xMidYMid meet">

<g transform="translate(0.000000,512.000000) scale(0.100000,-0.100000)"
fill="#fff" stroke="none">
<path d="M1158 4950 c-173 -87 -198 -107 -198 -149 0 -12 148 -317 328 -679
181 -361 327 -665 324 -674 -2 -10 -12 -18 -21 -18 -37 0 -159 -71 -200 -116
-39 -42 -101 -153 -101 -181 0 -7 -10 -13 -21 -13 -52 0 -106 -26 -155 -75
-68 -68 -79 -108 -71 -274 16 -333 99 -660 242 -959 l64 -132 -51 0 c-81 0
-128 -19 -183 -75 -70 -70 -75 -92 -75 -349 l0 -216 -55 0 c-71 0 -105 -28
-105 -88 0 -131 64 -283 160 -380 70 -70 122 -104 219 -141 64 -25 73 -25 363
-29 l296 -4 4 -108 c3 -117 12 -140 72 -184 27 -21 37 -21 646 -21 609 0 619
0 646 21 60 44 69 67 72 184 l4 108 296 4 c290 4 299 4 363 29 90 34 148 70
203 123 98 96 161 228 173 363 5 67 4 73 -20 97 l-26 26 -465 0 -464 0 94 95
95 94 547 213 c599 233 651 258 738 366 120 148 167 335 129 515 -24 115 -77
210 -164 298 -132 131 -262 179 -493 179 l-128 0 0 56 c0 81 -18 129 -67 184
-43 48 -107 80 -160 80 -16 0 -24 7 -29 28 -12 48 -54 123 -96 168 -40 44
-163 114 -199 114 -12 0 -19 7 -19 19 0 37 -70 159 -116 201 -25 23 -75 56
-112 73 -61 29 -76 32 -162 32 -86 0 -101 -3 -162 -32 -37 -17 -87 -50 -112
-73 l-46 -43 -46 43 c-25 23 -75 56 -112 73 -61 29 -76 32 -162 32 -86 0 -101
-3 -162 -32 -37 -17 -87 -50 -112 -73 l-46 -43 -44 41 c-50 47 -129 89 -183
100 l-38 7 -316 629 c-173 346 -324 635 -334 642 -34 25 -67 14 -247 -76z
m225 -216 c32 -64 52 -114 45 -112 -7 3 -66 23 -132 44 -101 33 -120 43 -133
67 -8 16 -13 30 -11 32 5 5 163 84 168 85 3 0 31 -52 63 -116z m41 -280 l118
-39 54 -107 53 -106 -132 44 -133 44 -52 106 c-29 59 -47 104 -40 102 7 -3 66
-23 132 -44z m204 -415 l123 -41 64 -127 64 -128 -47 -22 c-26 -13 -63 -36
-84 -53 l-37 -29 -111 220 c-60 122 -107 221 -103 221 5 0 63 -18 131 -41z
m446 -451 c85 -25 166 -136 166 -227 0 -42 38 -81 80 -81 42 0 80 39 80 81 0
123 117 239 240 239 123 0 240 -116 240 -239 0 -42 38 -81 80 -81 42 0 80 39
80 81 0 123 117 239 240 239 123 0 240 -116 240 -239 0 -43 38 -81 81 -81 52
0 107 -21 149 -58 35 -29 70 -78 70 -97 0 -3 -531 -5 -1180 -5 -649 0 -1180 2
-1180 5 0 19 35 68 70 97 42 37 97 58 149 58 43 0 81 38 81 81 0 62 23 113 75
164 70 71 145 90 239 63z m1983 -654 l26 -26 -6 -128 c-23 -485 -191 -940
-486 -1320 -138 -178 -395 -420 -445 -420 l-26 0 0 216 c0 139 -4 231 -12 256
-6 22 -31 62 -55 88 -75 83 -40 80 -829 80 l-693 0 -78 158 c-156 312 -233
600 -250 938 l-6 132 26 26 26 26 1391 0 1391 0 26 -26z m535 -323 c299 -117
383 -497 158 -722 -30 -31 -71 -64 -90 -74 -37 -20 -843 -336 -846 -332 -1 1
30 55 69 119 l71 117 304 122 c167 67 325 136 350 153 29 20 57 51 76 86 57
101 38 236 -45 318 -67 68 -97 76 -272 80 l-159 4 7 51 c3 29 9 65 12 81 l5
28 152 -4 c126 -4 161 -8 208 -27z m-86 -310 c58 -36 70 -124 21 -169 -19 -17
-117 -59 -429 -183 l-47 -18 26 67 c31 80 92 280 93 305 0 15 14 17 153 17
131 0 156 -3 183 -19z m-2986 -861 l0 -80 -160 0 -160 0 0 55 c0 46 4 60 25
80 23 24 29 25 160 25 l135 0 0 -80z m480 0 l0 -80 -160 0 -160 0 0 80 0 80
160 0 160 0 0 -80z m480 0 l0 -80 -160 0 -160 0 0 80 0 80 160 0 160 0 0 -80z
m455 55 c21 -20 25 -34 25 -80 l0 -55 -160 0 -160 0 0 80 0 80 135 0 c131 0
137 -1 160 -25z m-1415 -375 l0 -80 -160 0 -160 0 0 80 0 80 160 0 160 0 0
-80z m480 0 l0 -80 -160 0 -160 0 0 80 0 80 160 0 160 0 0 -80z m480 0 l0 -80
-160 0 -160 0 0 80 0 80 160 0 160 0 0 -80z m480 0 l0 -80 -160 0 -160 0 0 80
0 80 160 0 160 0 0 -80z m1270 -254 c0 -7 -16 -45 -35 -83 -43 -86 -103 -144
-193 -186 l-67 -32 -1295 0 -1295 0 -67 32 c-90 42 -150 100 -193 186 -19 38
-35 76 -35 83 0 12 253 14 1590 14 1337 0 1590 -2 1590 -14z m-1030 -546 l0
-80 -560 0 -560 0 0 80 0 80 560 0 560 0 0 -80z"/>
<path d="M540 873 c-33 -12 -55 -43 -116 -165 -63 -126 -82 -148 -125 -148
-81 0 -183 -78 -207 -156 -6 -23 -12 -94 -12 -158 0 -111 1 -118 25 -141 l24
-25 431 0 431 0 26 26 c23 23 25 31 20 82 -3 32 -15 84 -27 116 -23 60 -42 82
-187 216 -51 47 -71 77 -132 197 -62 122 -76 143 -103 152 -17 6 -31 11 -32
10 -1 0 -8 -3 -16 -6z m53 -316 c37 -71 96 -141 166 -196 53 -42 101 -96 101
-114 0 -4 -139 -7 -310 -7 l-310 0 0 57 c0 68 25 103 74 103 85 2 160 54 207
144 19 36 36 66 39 66 3 0 17 -24 33 -53z"/>
</g>
</svg>
