<?xml version="1.0" standalone="no"?>
<!DOCTYPE svg PUBLIC "-//W3C//DTD SVG 20010904//EN"
 "http://www.w3.org/TR/2001/REC-SVG-20010904/DTD/svg10.dtd">
<svg version="1.0" xmlns="http://www.w3.org/2000/svg"
 width="512.000000pt" height="512.000000pt" viewBox="0 0 512.000000 512.000000"
 preserveAspectRatio="xMidYMid meet">

<g transform="translate(0.000000,512.000000) scale(0.100000,-0.100000)"
fill="#fff" stroke="none">
<path d="M1877 4308 c-9 -7 -381 -487 -827 -1067 -774 -1007 -810 -1056 -810
-1095 1 -23 9 -65 19 -93 l18 -53 -114 0 c-109 0 -115 -1 -140 -26 -24 -24
-25 -30 -20 -92 9 -88 60 -194 123 -251 25 -24 75 -57 112 -74 l67 -32 966 -3
966 -2 5 -91 c5 -77 11 -101 40 -160 l34 -69 -293 0 -294 0 -26 -26 c-24 -24
-25 -30 -20 -92 9 -88 60 -194 123 -251 25 -24 75 -57 112 -74 l67 -32 1376 0
1375 0 76 37 c129 64 212 182 225 321 5 61 4 67 -20 91 l-26 26 -294 0 -293 0
34 69 c29 59 35 83 40 159 l5 90 166 4 167 3 76 37 c91 45 147 103 191 196
l32 67 3 382 3 383 -25 25 -25 25 -296 0 -295 0 0 55 c0 46 -4 60 -25 80 l-24
25 -394 0 -395 0 -507 743 c-279 408 -516 750 -527 760 -18 15 -51 17 -367 17
-262 0 -351 -3 -364 -12z m193 -153 c0 -3 -340 -447 -755 -987 -721 -937 -755
-983 -755 -1022 1 -23 9 -65 19 -93 l18 -53 -39 0 c-62 0 -116 34 -140 86
l-20 46 45 56 c24 31 360 469 747 972 386 503 718 934 737 958 33 40 37 42 89
42 30 0 54 -2 54 -5z m320 0 c0 -3 -340 -447 -755 -987 -721 -937 -755 -983
-755 -1022 1 -23 9 -65 19 -93 l18 -53 -39 0 c-62 0 -116 34 -140 86 l-20 46
45 56 c24 31 360 469 747 972 386 503 718 934 737 958 33 40 37 42 89 42 30 0
54 -2 54 -5z m623 -717 l436 -638 -580 0 -580 0 -24 -25 -25 -24 0 -376 0
-375 -540 0 c-527 0 -542 1 -581 21 -51 25 -89 97 -67 127 7 10 348 454 757
986 591 767 747 964 757 954 6 -7 208 -300 447 -650z m1307 -1414 c0 -455 -3
-627 -12 -658 -16 -55 -99 -138 -154 -154 -59 -17 -1529 -17 -1588 0 -55 16
-138 99 -154 154 -9 31 -12 203 -12 658 l0 616 960 0 960 0 0 -616z m640 160
c0 -204 -4 -310 -12 -338 -16 -55 -99 -138 -154 -154 -24 -7 -100 -12 -178
-12 l-136 0 0 39 0 40 149 3 c163 3 178 8 225 72 20 26 21 43 24 272 l3 244
-25 25 c-25 25 -27 25 -201 25 l-175 0 0 40 0 40 240 0 240 0 0 -296z m-240
-104 l0 -160 -120 0 -120 0 0 160 0 160 120 0 120 0 0 -160z m-2480 -320 l0
-80 -936 0 c-706 0 -947 3 -978 12 -45 13 -146 105 -146 132 0 14 102 16 1030
16 l1030 0 0 -80z m2620 -736 c0 -27 -101 -119 -146 -132 -60 -17 -2648 -17
-2708 0 -45 13 -146 105 -146 132 0 14 146 16 1500 16 1354 0 1500 -2 1500
-16z"/>
<path d="M2400 3440 l0 -80 80 0 80 0 0 80 0 80 -80 0 -80 0 0 -80z"/>
<path d="M2720 3120 l0 -80 80 0 80 0 0 80 0 80 -80 0 -80 0 0 -80z"/>
<path d="M2080 3040 l0 -80 80 0 80 0 0 80 0 80 -80 0 -80 0 0 -80z"/>
<path d="M1760 2640 l0 -80 80 0 80 0 0 80 0 80 -80 0 -80 0 0 -80z"/>
<path d="M1280 2240 l0 -80 80 0 80 0 0 80 0 80 -80 0 -80 0 0 -80z"/>
<path d="M1760 2240 l0 -80 80 0 80 0 0 80 0 80 -80 0 -80 0 0 -80z"/>
<path d="M2560 2400 l0 -80 80 0 80 0 0 80 0 80 -80 0 -80 0 0 -80z"/>
<path d="M2560 1800 l0 -360 80 0 80 0 0 360 0 360 -80 0 -80 0 0 -360z"/>
<path d="M3204 4279 c9 -59 41 -115 100 -177 47 -50 51 -58 51 -103 0 -45 -4
-52 -51 -101 -77 -78 -99 -127 -99 -218 1 -90 27 -150 99 -219 25 -24 48 -57
51 -73 7 -28 7 -28 87 -28 l81 0 -7 41 c-9 59 -41 115 -100 177 -47 50 -51 58
-51 103 0 45 4 52 51 101 77 78 99 127 99 218 -1 90 -27 150 -99 219 -25 24
-48 57 -51 73 -7 28 -7 28 -87 28 l-81 0 7 -41z"/>
<path d="M3604 3879 c9 -59 41 -115 100 -177 47 -50 51 -58 51 -103 0 -45 -4
-52 -51 -101 -77 -78 -99 -127 -99 -218 1 -90 27 -150 99 -219 25 -24 48 -57
51 -73 7 -28 7 -28 87 -28 l81 0 -7 41 c-9 59 -41 115 -100 177 -47 50 -51 58
-51 103 0 45 4 52 51 101 77 78 99 127 99 218 -1 90 -27 150 -99 219 -25 24
-48 57 -51 73 -7 28 -7 28 -87 28 l-81 0 7 -41z"/>
<path d="M4004 3879 c9 -59 41 -115 100 -177 47 -50 51 -58 51 -103 0 -45 -4
-52 -51 -101 -77 -78 -99 -127 -99 -218 1 -90 27 -150 99 -219 25 -24 48 -57
51 -73 7 -28 7 -28 87 -28 l81 0 -7 41 c-9 59 -41 115 -100 177 -47 50 -51 58
-51 103 0 45 4 52 51 101 77 78 99 127 99 218 -1 90 -27 150 -99 219 -25 24
-48 57 -51 73 -7 28 -7 28 -87 28 l-81 0 7 -41z"/>
</g>
</svg>
