<?xml version="1.0" standalone="no"?>
<!DOCTYPE svg PUBLIC "-//W3C//DTD SVG 20010904//EN"
 "http://www.w3.org/TR/2001/REC-SVG-20010904/DTD/svg10.dtd">
<svg version="1.0" xmlns="http://www.w3.org/2000/svg"
 width="512.000000pt" height="512.000000pt" viewBox="0 0 512.000000 512.000000"
 preserveAspectRatio="xMidYMid meet">

<g transform="translate(0.000000,512.000000) scale(0.100000,-0.100000)"
fill="#fff" stroke="none">
<path d="M1430 4733 c-8 -3 -25 -15 -37 -26 -44 -40 -22 -189 39 -273 13 -17
37 -50 55 -73 69 -91 62 -205 -19 -298 -23 -27 -52 -72 -66 -101 -25 -56 -39
-152 -28 -196 8 -33 58 -59 97 -51 38 9 57 39 69 110 9 56 22 81 90 169 49 63
73 140 73 231 0 100 -27 174 -90 252 -49 59 -73 109 -73 146 0 49 -22 89 -56
103 -18 8 -35 14 -36 13 -2 0 -10 -3 -18 -6z"/>
<path d="M1935 4731 c-46 -19 -58 -46 -53 -118 6 -81 34 -151 87 -213 59 -70
75 -107 75 -175 0 -68 -13 -98 -80 -184 -53 -68 -84 -151 -84 -223 1 -75 40
-116 100 -103 40 9 59 35 69 96 13 75 23 97 70 154 133 160 131 365 -4 525
-44 52 -65 97 -65 139 0 50 -18 81 -55 96 -19 8 -36 15 -37 14 -2 0 -12 -4
-23 -8z"/>
<path d="M2443 4730 c-87 -34 -63 -202 50 -348 90 -116 90 -211 -2 -321 -57
-67 -92 -150 -99 -227 -4 -60 -3 -64 26 -93 39 -40 74 -40 113 -2 21 22 29 39
29 66 0 49 21 95 74 163 61 78 87 140 93 227 7 92 -21 194 -72 257 -61 76 -86
126 -94 183 -11 79 -59 118 -118 95z"/>
<path d="M985 3451 c-87 -21 -127 -81 -133 -198 -3 -63 -8 -83 -17 -79 -41 15
-189 28 -269 23 -152 -11 -264 -58 -354 -150 -135 -138 -196 -325 -208 -642
-16 -412 91 -690 321 -834 118 -74 296 -95 488 -56 48 9 89 16 91 14 1 -2 15
-34 30 -71 51 -122 152 -256 265 -351 l45 -37 -365 0 c-219 0 -379 -4 -401
-10 -50 -14 -97 -55 -119 -105 -24 -52 -26 -237 -4 -313 31 -104 131 -194 260
-235 l70 -22 2045 0 c1958 0 2048 1 2105 18 123 39 207 103 252 195 25 51 28
69 32 181 2 74 -1 140 -8 162 -14 46 -77 104 -128 118 -23 7 -156 11 -333 11
l-295 0 85 46 c158 85 316 225 409 366 34 50 41 69 41 110 0 27 -7 62 -15 78
-15 29 -14 32 50 142 110 192 164 357 185 563 14 132 8 355 -11 420 -11 41
-87 125 -113 125 -8 0 -24 43 -44 121 -61 233 -148 372 -254 404 -60 17 -95
12 -171 -28 -120 -63 -157 -148 -165 -374 l-5 -153 -43 -21 c-59 -28 -113 -93
-147 -176 -15 -37 -34 -77 -42 -87 -14 -19 -16 -18 -73 7 -93 42 -117 38 -371
-59 -124 -48 -241 -95 -258 -106 -22 -13 -44 -42 -69 -93 l-37 -74 -31 13 -31
12 -5 520 c-4 384 -8 525 -17 540 -20 34 -70 72 -111 84 -43 11 -2078 13
-2127 1z m2085 -615 l0 -454 -47 -7 c-27 -4 -56 -11 -65 -16 -13 -7 -30 8 -87
79 -134 169 -206 217 -321 216 -178 -3 -265 -117 -239 -312 11 -78 64 -244
105 -324 24 -47 24 -49 8 -81 -27 -51 -23 -135 10 -192 72 -131 256 -345 370
-432 l39 -29 -59 -47 c-77 -62 -199 -122 -298 -147 -72 -18 -113 -20 -432 -20
-385 0 -437 5 -563 58 -129 54 -250 155 -333 275 -51 75 -82 144 -110 243 -22
78 -22 90 -26 848 -2 423 -1 775 2 782 5 12 176 14 1026 14 l1020 0 0 -454z
m1598 421 c40 -43 136 -296 119 -314 -6 -5 -180 -22 -236 -23 l-34 0 5 128 c6
142 21 192 67 217 37 20 54 18 79 -8z m-3873 -249 l50 -13 3 -92 3 -91 -63 20
c-44 14 -92 21 -158 22 -84 1 -100 -2 -138 -24 -50 -28 -96 -93 -117 -163 -39
-131 -44 -452 -9 -582 32 -122 92 -206 169 -235 42 -16 163 -13 240 6 36 9 68
15 70 12 2 -2 7 -40 11 -85 l7 -81 -40 -11 c-66 -18 -215 -29 -273 -21 -258
37 -396 304 -377 729 8 162 20 240 53 340 47 143 142 242 264 276 63 17 223
14 305 -7z m4136 -255 c11 -12 14 -58 14 -197 0 -194 -12 -282 -52 -406 -25
-76 -111 -260 -122 -260 -3 0 -31 42 -63 93 -100 163 -251 337 -410 472 l-46
40 47 98 c27 54 54 105 62 112 24 25 295 61 475 64 65 1 84 -2 95 -16z m-4210
-79 c30 -9 71 -25 92 -37 l37 -21 -2 -280 -3 -280 -49 -19 c-56 -20 -161 -33
-199 -23 -76 19 -113 363 -62 581 22 95 66 114 186 79z m1898 -213 c26 -17
171 -186 171 -200 0 -5 -6 -11 -12 -14 -7 -3 -56 -37 -108 -76 -52 -39 -97
-71 -100 -71 -8 0 -54 116 -75 192 -19 67 -22 153 -5 173 23 27 84 26 129 -4z
m1400 -25 c150 -76 313 -225 454 -414 71 -95 181 -276 228 -374 28 -59 23 -70
-73 -173 -166 -177 -462 -330 -750 -386 -157 -30 -418 -22 -447 15 -5 6 -16
52 -24 101 -32 177 -40 295 -34 499 4 167 9 219 30 306 25 107 76 251 100 284
12 17 403 174 435 176 7 0 43 -16 81 -34z m-878 -266 c46 -22 89 -40 97 -40
11 0 13 -8 9 -32 -3 -18 -13 -71 -22 -118 -27 -148 -36 -339 -25 -497 5 -80
13 -156 16 -170 6 -23 5 -25 -17 -18 -98 30 -249 118 -343 199 -115 99 -276
308 -276 359 0 28 32 60 155 153 106 81 293 204 310 204 8 0 51 -18 96 -40z
m28 -1044 c136 -50 123 -56 -114 -56 l-206 0 58 48 c32 27 64 56 71 65 12 14
18 13 60 -6 26 -11 85 -35 131 -51z m1769 -235 c11 -6 13 -32 10 -107 -4 -124
-20 -152 -117 -198 l-66 -31 -1985 -3 c-1369 -2 -2007 1 -2054 8 -81 12 -158
51 -189 94 -18 26 -23 48 -25 130 -3 75 -1 101 10 107 17 11 4399 11 4416 0z"/>
</g>
</svg>
