<?xml version="1.0" standalone="no"?>
<!DOCTYPE svg PUBLIC "-//W3C//DTD SVG 20010904//EN"
 "http://www.w3.org/TR/2001/REC-SVG-20010904/DTD/svg10.dtd">
<svg version="1.0" xmlns="http://www.w3.org/2000/svg"
 width="512.000000pt" height="512.000000pt" viewBox="0 0 512.000000 512.000000"
 preserveAspectRatio="xMidYMid meet">

<g transform="translate(0.000000,512.000000) scale(0.100000,-0.100000)"
fill="#e88a33" stroke="none">
<path d="M2360 4904 c-300 -43 -501 -136 -680 -314 -90 -89 -148 -170 -219
-305 -67 -126 -95 -166 -167 -238 -85 -86 -167 -135 -389 -232 -315 -138 -343
-152 -432 -211 -210 -140 -374 -371 -440 -619 -23 -87 -26 -120 -27 -255 0
-138 3 -166 27 -255 29 -105 77 -216 130 -300 17 -27 99 -142 181 -255 82
-113 164 -237 182 -276 18 -39 69 -202 113 -363 80 -290 115 -388 174 -485
158 -262 428 -449 732 -510 241 -47 415 -27 705 81 156 59 267 79 392 71 50
-4 261 -45 538 -106 536 -119 587 -127 728 -118 280 18 510 120 714 314 210
201 321 458 321 742 0 144 -5 172 -81 490 -56 229 -57 238 -57 375 1 126 4
148 29 220 15 44 51 123 80 175 115 204 158 306 188 445 16 76 16 302 -1 380
-70 334 -281 609 -582 758 -160 79 -256 101 -629 141 -275 30 -392 89 -625
316 -123 119 -157 145 -265 203 -190 103 -457 157 -640 131z"/>
</g>
</svg>
