<?xml version="1.0" standalone="no"?>
<!DOCTYPE svg PUBLIC "-//W3C//DTD SVG 20010904//EN"
 "http://www.w3.org/TR/2001/REC-SVG-20010904/DTD/svg10.dtd">
<svg version="1.0" xmlns="http://www.w3.org/2000/svg"
 width="512.000000pt" height="512.000000pt" viewBox="0 0 512.000000 512.000000"
 preserveAspectRatio="xMidYMid meet">

<g transform="translate(0.000000,512.000000) scale(0.100000,-0.100000)"
fill="#fff" stroke="none">
<path d="M2325 5110 c-510 -52 -980 -243 -1371 -558 -150 -120 -177 -156 -158
-207 9 -24 61 -47 87 -39 12 4 51 33 87 64 777 687 1934 794 2820 260 338
-203 637 -502 840 -840 216 -358 340 -807 340 -1230 0 -422 -124 -872 -340
-1230 -250 -417 -635 -762 -1070 -961 -557 -254 -1176 -287 -1760 -93 -547
182 -1010 554 -1310 1054 -497 825 -441 1894 139 2670 40 53 71 105 71 118 0
56 -51 93 -99 72 -51 -21 -220 -270 -323 -475 -501 -994 -311 -2182 474 -2965
407 -405 900 -647 1493 -732 119 -17 512 -16 635 1 580 80 1089 330 1489 732
464 467 723 1061 748 1719 26 711 -242 1393 -749 1900 -392 393 -893 643
-1453 726 -122 18 -467 26 -590 14z"/>
<path d="M2295 4816 c-71 -43 -79 -68 -85 -260 l-5 -168 -90 -23 c-49 -13
-117 -32 -149 -44 -57 -20 -62 -20 -114 -5 -285 83 -668 -241 -937 -791 -198
-405 -305 -831 -305 -1215 0 -289 60 -498 181 -625 45 -48 139 -105 172 -105
8 0 46 -43 83 -97 38 -53 99 -128 136 -168 l66 -71 -10 -49 c-37 -191 75 -422
265 -546 130 -85 307 -111 466 -70 194 51 292 48 516 -14 175 -47 277 -59 402
-46 85 10 101 14 121 37 30 34 28 60 -8 95 -28 28 -33 30 -77 22 -27 -4 -93
-7 -148 -6 -82 1 -126 9 -247 42 -248 68 -378 73 -578 21 -226 -59 -429 29
-528 229 -34 68 -37 82 -37 155 1 151 68 246 229 320 107 50 148 92 173 176
15 51 15 61 -2 146 -25 127 -18 221 23 308 39 82 115 164 190 204 64 34 548
186 649 203 96 17 311 6 398 -20 162 -49 302 -134 415 -254 41 -44 137 -144
212 -222 111 -114 144 -155 169 -209 55 -118 51 -265 -12 -389 -11 -21 -59
-82 -107 -135 -49 -53 -121 -137 -162 -187 -96 -117 -164 -182 -235 -225 -95
-58 -115 -78 -115 -114 0 -38 35 -76 69 -76 13 0 48 14 78 31 103 59 201 147
322 291 67 79 153 178 191 221 38 43 82 104 97 135 15 31 54 93 86 137 398
539 476 1236 207 1856 -157 363 -460 690 -821 887 -133 73 -358 156 -481 178
-32 5 -71 39 -256 219 -120 117 -232 220 -250 229 -46 24 -110 20 -157 -8z
m1010 -1018 c716 -698 912 -895 903 -905 -9 -11 -176 -13 -927 -11 l-916 3 -3
890 c-1 490 0 896 3 903 2 6 9 12 14 12 6 0 422 -401 926 -892z m-1095 -245
c0 -638 2 -680 19 -719 22 -49 60 -80 112 -94 26 -7 349 -10 978 -8 l939 3 6
-44 c26 -187 -18 -498 -100 -718 -38 -102 -117 -268 -132 -277 -5 -3 -14 17
-20 45 -25 107 -59 157 -207 309 -77 80 -171 180 -208 222 -205 234 -480 358
-793 358 -161 0 -228 -14 -560 -118 -314 -98 -363 -122 -461 -220 -70 -70
-133 -186 -152 -280 -16 -75 -14 -192 5 -272 14 -63 14 -72 -1 -103 -9 -19
-26 -39 -38 -44 -148 -70 -166 -81 -225 -139 l-62 -63 -49 59 c-69 82 -104
130 -100 133 2 2 25 15 50 30 63 36 134 117 157 180 11 29 23 88 26 132 45
537 335 1386 616 1805 56 82 80 135 91 198 13 69 -1 157 -36 219 l-23 42 56
16 c32 9 62 18 67 20 6 2 18 4 28 4 16 1 17 -38 17 -676z m-364 608 c80 -36
127 -136 104 -222 -7 -24 -24 -61 -39 -84 -16 -22 -54 -85 -86 -140 -32 -55
-59 -101 -60 -102 -1 -2 -27 6 -58 17 -151 53 -275 -8 -293 -144 -13 -90 38
-169 132 -206 29 -11 48 -24 46 -32 -3 -14 -54 -138 -57 -138 -1 0 -41 14 -90
30 -109 37 -137 37 -203 4 -68 -34 -102 -88 -102 -163 0 -106 50 -163 182
-206 45 -15 84 -29 86 -30 3 -3 -37 -147 -43 -153 -2 -2 -28 4 -58 13 -67 19
-110 13 -170 -25 -68 -43 -99 -127 -77 -208 16 -63 73 -115 154 -142 63 -21
67 -24 62 -49 -8 -39 -24 -166 -31 -246 -4 -38 -15 -86 -26 -106 -54 -106
-186 -140 -283 -72 -208 145 -236 678 -66 1243 115 383 307 741 511 955 182
190 343 261 465 206z m1480 -76 c273 -137 490 -329 661 -585 47 -70 132 -229
154 -289 12 -30 54 -70 -531 499 -228 222 -426 414 -440 427 -44 41 0 27 156
-52z m-1636 -616 c0 -6 -7 -23 -16 -40 -16 -32 -26 -32 -84 -5 -33 15 -38 50
-10 69 19 14 27 14 66 0 24 -8 44 -19 44 -24z m-284 -475 c38 -14 71 -27 72
-29 6 -6 -19 -75 -26 -75 -4 0 -41 13 -82 28 -60 22 -76 32 -78 50 -4 25 13
52 33 52 7 0 44 -12 81 -26z m-122 -540 c34 -12 46 -20 42 -31 -3 -8 -6 -20
-6 -26 -1 -32 -16 -37 -63 -21 -53 18 -68 45 -41 75 9 10 18 19 19 19 1 0 23
-7 49 -16z"/>
<path d="M2674 3778 c-95 -95 -156 -163 -160 -180 -5 -22 0 -33 24 -58 17 -16
41 -30 53 -30 16 0 70 47 181 157 148 147 158 160 158 195 0 43 -27 68 -74 68
-25 0 -54 -24 -182 -152z"/>
<path d="M2924 3528 c-95 -95 -156 -163 -160 -180 -5 -22 0 -33 24 -58 17 -16
41 -30 53 -30 16 0 70 47 181 157 148 147 158 160 158 195 0 43 -27 68 -74 68
-25 0 -54 -24 -182 -152z"/>
<path d="M3173 3278 c-93 -94 -154 -164 -158 -180 -6 -22 -1 -33 23 -58 17
-16 41 -30 53 -30 16 0 70 47 181 157 148 147 158 160 158 195 0 43 -27 68
-75 68 -26 0 -53 -23 -182 -152z"/>
<path d="M2656 2095 c-179 -49 -328 -188 -388 -363 -33 -96 -33 -258 0 -354
79 -229 287 -379 526 -379 51 0 117 7 150 16 199 53 357 223 401 430 18 88 18
132 0 220 -44 208 -202 376 -405 430 -68 18 -218 18 -284 0z m318 -174 c308
-152 309 -588 1 -732 -212 -100 -447 -15 -548 199 -29 61 -32 75 -32 168 0 96
2 103 38 176 75 153 207 230 383 225 80 -2 99 -7 158 -36z"/>
</g>
</svg>
