<?xml version="1.0" standalone="no"?>
<!DOCTYPE svg PUBLIC "-//W3C//DTD SVG 20010904//EN"
 "http://www.w3.org/TR/2001/REC-SVG-20010904/DTD/svg10.dtd">
<svg version="1.0" xmlns="http://www.w3.org/2000/svg"
 width="512.000000pt" height="512.000000pt" viewBox="0 0 512.000000 512.000000"
 preserveAspectRatio="xMidYMid meet">

<g transform="translate(0.000000,512.000000) scale(0.100000,-0.100000)"
fill="#fff" stroke="none">
<path d="M573 4711 c-240 -62 -413 -398 -413 -801 0 -166 45 -372 111 -501 15
-31 51 -86 79 -123 36 -47 49 -72 46 -88 -3 -13 -8 -143 -11 -290 l-7 -268 80
0 79 0 6 167 c4 91 7 201 7 243 l0 77 90 -1 90 -1 0 -55 c0 -30 16 -575 36
-1210 26 -854 32 -1165 24 -1192 -13 -45 -68 -95 -115 -104 -81 -15 -164 32
-185 104 -8 27 -4 254 14 859 14 452 26 852 26 888 l0 65 -80 0 -80 0 0 -60
c0 -34 -12 -429 -26 -878 -14 -449 -22 -839 -19 -866 13 -102 71 -185 167
-237 58 -31 70 -34 148 -34 78 0 90 3 148 34 107 58 161 145 168 270 2 42 -13
621 -33 1288 l-38 1211 43 47 c80 89 144 220 182 376 28 111 37 336 20 461
-48 359 -235 613 -458 624 -37 2 -81 -1 -99 -5z m154 -172 c92 -45 179 -179
225 -349 20 -74 22 -109 22 -270 0 -161 -2 -196 -22 -270 -59 -218 -183 -370
-302 -370 -119 0 -239 149 -298 369 -23 86 -25 115 -25 271 0 156 2 185 25
271 46 171 130 303 220 348 54 27 100 27 155 0z"/>
<path d="M4002 4023 l3 -698 24 -47 c13 -26 38 -60 55 -77 36 -34 103 -71 128
-71 23 0 25 105 -18 -1256 -19 -632 -32 -1171 -29 -1198 13 -102 71 -185 167
-237 58 -31 70 -34 148 -34 78 0 90 3 148 34 70 38 100 69 140 145 l27 51 -2
260 c-2 143 -5 288 -9 323 l-6 62 -79 0 -80 0 5 -77 c3 -43 8 -175 12 -294 6
-241 2 -263 -55 -312 -83 -69 -222 -30 -251 71 -8 27 -2 338 24 1192 20 635
36 1179 36 1208 l0 52 90 0 90 0 0 -47 c0 -88 40 -1427 46 -1530 l6 -103 79 0
80 0 -6 138 c-8 173 -45 1417 -45 1494 0 49 3 58 18 58 24 0 91 37 125 69 16
14 41 49 55 76 l27 50 3 698 3 697 -81 0 -80 0 0 -400 0 -400 -120 0 -120 0 0
400 0 400 -80 0 -80 0 0 -400 0 -400 -120 0 -120 0 0 400 0 400 -80 0 -81 0 3
-697z m796 -468 l-3 -205 -33 -32 -32 -33 -250 0 -250 0 -32 33 -33 32 -3 205
-3 205 321 0 321 0 -3 -205z"/>
<path d="M2400 4554 c-14 -2 -65 -9 -115 -15 -370 -46 -758 -224 -1049 -480
-5 -4 15 -35 44 -68 l52 -60 62 51 c88 74 225 162 346 223 584 293 1285 251
1835 -112 50 -33 118 -83 151 -111 l62 -51 53 61 53 61 -30 24 c-334 276 -693
429 -1106 473 -91 9 -302 12 -358 4z"/>
<path d="M2415 4074 c-403 -58 -665 -183 -925 -444 -231 -230 -367 -487 -426
-805 -26 -135 -26 -402 0 -530 65 -330 210 -602 442 -826 223 -215 476 -344
789 -406 128 -25 395 -24 530 1 435 81 805 335 1033 708 133 217 206 460 218
723 6 113 -6 299 -20 312 -2 3 -38 -1 -80 -7 l-76 -13 8 -41 c11 -65 8 -334
-6 -411 -7 -38 -20 -94 -28 -123 l-15 -53 -43 35 c-53 44 -163 95 -295 137
l-100 31 57 68 c75 90 119 165 153 258 125 355 -4 737 -318 942 -140 92 -259
125 -443 124 -119 -1 -145 -4 -220 -29 -47 -15 -97 -33 -111 -41 -23 -11 -29
-11 -38 0 -6 7 -39 26 -74 42 -53 25 -75 29 -147 29 -72 0 -94 -4 -145 -28
-72 -34 -138 -95 -170 -158 l-24 -46 -73 -5 c-140 -9 -257 -88 -314 -212 -33
-73 -42 -170 -21 -238 l14 -46 -47 -26 c-92 -50 -134 -118 -156 -251 -3 -22
-23 -76 -43 -120 -49 -109 -50 -180 -3 -279 18 -38 41 -109 52 -157 10 -48 25
-100 34 -116 21 -40 72 -85 141 -123 33 -19 87 -58 120 -88 96 -89 150 -104
306 -87 37 4 81 4 98 0 30 -6 30 -7 16 -35 -42 -82 -26 -172 44 -241 85 -86
185 -93 352 -24 170 70 258 89 424 88 117 0 156 -5 237 -26 97 -26 218 -74
218 -86 0 -11 -147 -97 -220 -129 -93 -42 -208 -79 -308 -99 -119 -24 -383
-24 -504 0 -103 21 -266 76 -352 119 -379 191 -649 546 -733 966 -24 120 -24
384 0 504 109 547 516 959 1067 1081 139 30 404 30 547 -1 264 -57 492 -182
684 -373 144 -143 271 -347 326 -522 20 -64 11 -62 121 -31 61 18 61 4 1 159
-75 194 -196 372 -362 532 -210 202 -457 332 -745 393 -94 20 -372 35 -447 24z
m-41 -499 c154 -73 129 -318 -37 -364 -154 -44 -289 91 -247 247 13 51 75 117
122 131 46 14 116 8 162 -14z m641 10 c214 -44 409 -223 476 -435 29 -91 35
-226 15 -320 -32 -152 -136 -310 -258 -392 l-53 -36 -155 -6 c-90 -3 -192 -13
-243 -24 -74 -15 -87 -16 -82 -4 17 44 27 107 22 141 -2 21 -21 75 -41 119
-20 44 -36 82 -36 85 0 3 32 -11 71 -31 64 -33 80 -37 148 -37 131 0 234 66
290 184 21 46 26 70 26 136 0 73 -4 86 -36 145 -63 115 -177 178 -303 168
-147 -12 -260 -115 -291 -264 l-10 -52 -65 39 c-36 21 -72 43 -80 47 -12 7 -4
15 35 35 145 74 228 261 181 410 l-15 49 37 15 c100 42 247 53 367 28z m-1084
-267 c18 -67 47 -119 97 -171 l46 -47 -19 -36 c-69 -128 -260 -136 -340 -15
-52 79 -41 185 26 252 40 40 80 57 141 58 36 1 38 -1 49 -41z m1012 -212 c103
-43 128 -177 48 -257 -64 -65 -153 -65 -220 -1 -128 121 9 326 172 258z m-680
-142 c28 -25 86 -66 129 -91 83 -48 85 -51 108 -167 7 -33 27 -93 46 -134 19
-41 34 -82 34 -91 0 -9 -18 -57 -39 -105 l-39 -89 -73 -38 c-117 -62 -174
-132 -186 -228 -10 -84 -14 -86 -240 -87 l-195 -1 -62 54 c-33 31 -96 75 -138
100 -83 48 -85 51 -108 167 -7 33 -27 93 -46 134 -19 41 -34 82 -34 92 0 10
15 51 34 92 19 41 39 101 46 134 22 111 27 121 86 155 50 28 57 30 72 16 10
-9 44 -29 77 -44 51 -24 73 -28 145 -28 72 0 94 4 147 29 65 29 154 112 167
154 4 12 10 22 13 22 3 0 28 -21 56 -46z m972 -735 c125 -15 253 -50 364 -97
102 -45 135 -69 150 -114 9 -25 7 -33 -14 -54 -33 -33 -84 -31 -162 6 -300
141 -651 145 -968 9 -100 -43 -155 -48 -190 -19 -40 33 2 107 83 145 237 113
485 155 737 124z m-215 -349 c213 -26 457 -110 509 -175 33 -43 35 -64 10 -91
-33 -35 -84 -32 -182 12 -109 48 -239 81 -369 96 -185 20 -402 -16 -585 -96
-95 -42 -152 -47 -184 -15 -41 41 -2 103 95 150 54 26 65 27 140 22 73 -5 88
-3 146 22 208 87 252 95 420 75z"/>
<path d="M2081 2641 c-23 -33 -41 -62 -41 -65 0 -6 204 -144 224 -152 9 -4 29
16 55 55 23 33 41 62 41 65 0 6 -204 144 -224 152 -9 4 -29 -16 -55 -55z"/>
<path d="M1646 2552 c-20 -59 -36 -112 -36 -119 0 -10 109 -53 136 -53 11 0
84 197 84 227 0 10 -109 53 -136 53 -7 0 -28 -48 -48 -108z"/>
<path d="M2006 2274 c-54 -18 -101 -36 -105 -39 -8 -9 41 -145 53 -145 28 0
226 73 226 83 0 7 -10 40 -22 75 -14 41 -27 62 -37 61 -9 0 -61 -16 -115 -35z"/>
<path d="M1116 1287 l-58 -52 109 -105 c117 -114 217 -193 341 -269 573 -356
1299 -397 1905 -108 216 103 379 217 549 385 108 107 106 96 27 163 l-48 40
-78 -78 c-300 -300 -689 -486 -1115 -532 -542 -60 -1103 142 -1495 536 -40 40
-74 73 -75 73 -2 0 -29 -24 -62 -53z"/>
</g>
</svg>
