<?xml version="1.0" standalone="no"?>
<!DOCTYPE svg PUBLIC "-//W3C//DTD SVG 20010904//EN"
 "http://www.w3.org/TR/2001/REC-SVG-20010904/DTD/svg10.dtd">
<svg version="1.0" xmlns="http://www.w3.org/2000/svg"
 width="512.000000pt" height="512.000000pt" viewBox="0 0 512.000000 512.000000"
 preserveAspectRatio="xMidYMid meet">

<g transform="translate(0.000000,512.000000) scale(0.100000,-0.100000)"
fill="#fff" stroke="none">
<path d="M3335 4344 c-105 -16 -188 -58 -350 -178 -153 -113 -201 -140 -281
-161 -70 -18 -132 -12 -379 40 -220 46 -355 65 -468 65 -243 0 -414 -78 -520
-237 -54 -82 -81 -146 -112 -271 -12 -51 -30 -103 -39 -117 -9 -13 -44 -43
-78 -66 -178 -119 -295 -246 -373 -404 -108 -220 -123 -460 -43 -683 28 -76
49 -112 205 -342 40 -60 53 -101 53 -170 0 -189 84 -430 210 -600 183 -247
461 -406 771 -440 265 -29 546 50 772 218 94 71 114 68 340 -46 209 -105 270
-123 426 -123 123 -1 186 11 254 49 117 63 161 171 187 452 27 296 78 400 252
512 297 190 399 539 246 848 -42 86 -77 125 -257 292 -120 111 -143 222 -100
503 49 326 22 467 -116 614 -145 155 -428 270 -600 245z m160 -89 c86 -18 249
-98 328 -160 72 -58 118 -120 148 -204 30 -84 30 -200 0 -396 -47 -311 -14
-451 138 -584 143 -124 187 -174 230 -261 80 -164 81 -336 1 -497 -52 -106
-116 -174 -237 -256 -189 -126 -243 -238 -273 -567 -31 -342 -101 -424 -357
-422 -148 1 -197 15 -379 109 -176 90 -262 119 -317 109 -19 -3 -85 -40 -146
-81 -229 -151 -458 -213 -691 -186 -248 29 -445 124 -615 295 -182 183 -274
389 -295 657 -10 137 -22 163 -150 349 -88 126 -125 207 -146 318 -60 314 89
648 374 843 90 61 138 104 157 139 7 14 25 72 39 129 35 136 74 217 142 291
156 168 371 189 871 85 251 -52 308 -58 392 -41 92 19 156 54 316 173 217 160
309 192 470 158z"/>
<path d="M3244 4121 c-75 -21 -162 -70 -279 -156 -201 -147 -267 -159 -560
-101 -352 70 -470 80 -613 50 -146 -30 -251 -99 -331 -219 -74 -111 -143 -324
-117 -361 9 -12 20 -15 38 -11 22 6 28 17 47 94 32 127 80 223 145 291 65 69
134 106 231 127 131 28 229 20 562 -45 233 -46 318 -50 417 -20 62 20 94 39
318 192 162 112 318 125 503 43 66 -29 88 -31 105 -10 21 25 1 52 -59 79 -142
63 -290 81 -407 47z"/>
<path d="M2435 3265 c-330 -61 -572 -331 -592 -662 -25 -417 300 -763 717
-763 417 0 742 346 717 763 -21 333 -262 602 -597 663 -92 16 -153 16 -245 -1z
m325 -101 c100 -34 177 -82 253 -159 114 -116 174 -250 184 -410 11 -188 -54
-355 -191 -490 -128 -127 -267 -185 -446 -185 -179 0 -318 58 -446 185 -92 92
-143 180 -174 301 -92 357 155 726 524 785 81 12 212 1 296 -27z"/>
<path d="M2032 2628 c-16 -16 -15 -90 3 -167 36 -151 154 -303 290 -373 145
-75 315 -92 315 -32 0 26 -32 44 -76 44 -59 0 -184 42 -242 82 -128 88 -222
253 -222 389 0 55 -38 87 -68 57z"/>
<path d="M3870 2905 c-19 -23 -7 -38 77 -103 110 -84 187 -170 208 -232 21
-63 21 -174 0 -254 -35 -133 -129 -258 -258 -342 -189 -122 -251 -233 -282
-502 -27 -231 -34 -279 -50 -324 -19 -54 -19 -72 0 -88 24 -20 53 -2 69 43 24
64 33 118 51 287 32 310 74 398 243 507 189 122 301 294 320 492 19 199 -36
310 -227 457 -96 74 -128 87 -151 59z"/>
<path d="M1140 1985 c-10 -12 -11 -40 -7 -108 33 -478 370 -817 880 -886 126
-18 194 -15 207 8 13 26 3 50 -24 55 -11 3 -60 7 -108 10 -498 33 -842 354
-875 819 -6 87 -18 117 -47 117 -8 0 -19 -7 -26 -15z"/>
</g>
</svg>
